# xmcd
#
# Track frame offsets:
# 150
# 14192
# 28774
# 41026
# 84050
# 100266
# 116161
# 125818
# 148488
# 162809
#
# Disc length: 2286 seconds
#
#
# Revision: 0
# Processed by: cddbd v1.5.2PL0 Copyright (c) Steve Scherf et al.
# Submitted via: FreeRIP 2.951 
#
DISCID=8e08ec0a
DTITLE=Keith Allen - The Farmin' Life
DYEAR=1900
DGENRE=Gospel
TTITLE0=Movin' To The Country
TTITLE1=Millie The Mountain Girl
TTITLE2=Why Me Lord
TTITLE3=Roly Poly
TTITLE4=Were You There
TTITLE5=Go Rest High On That Mountain
TTITLE6=This Ole House
TTITLE7=Ozark Mountain Home
TTITLE8=In The Garden
TTITLE9=How Great Thou Art
EXTD=Recorded live at Silver Dollar City in Branson, Mo.\n
EXTT0=
EXTT1=
EXTT2=
EXTT3=
EXTT4=
EXTT5=
EXTT6=
EXTT7=
EXTT8=
EXTT9=
PLAYORDER=
